<?xml version="1.0" standalone="no"?>
<!DOCTYPE svg PUBLIC "-//W3C//DTD SVG 1.1//EN" "http://www.w3.org/Graphics/SVG/1.1/DTD/svg11.dtd">
<svg xmlns="http://www.w3.org/2000/svg" data-bbox="0 0 356.2 306.2" viewBox="0 0 356.3 306.2" data-type="color" width="356.29998779296875" height="306.20001220703125">
    <g>
        <path d="M178.1 193.8h-37.7c-41.3 0-74.8-33.5-74.8-74.8V81.3h38.8c40.7 0 73.7 33 73.7 73.7v38.8z" fill="#d7c9e3" data-color="1"/>
        <path d="M178.1 194.9c-.3 0-.6-.1-.8-.3l-65.1-65.1c-.4-.4-.4-1.1 0-1.6.4-.4 1.1-.4 1.6 0l65.1 65.1c.4.4.4 1.1 0 1.6-.2.2-.5.3-.8.3z" fill="#ad98bd" data-color="2"/>
        <path d="M129.7 146.5H113c-.6 0-1.1-.5-1.1-1.1s.5-1.1 1.1-1.1h16.6c.6 0 1.1.5 1.1 1.1s-.4 1.1-1 1.1z" fill="#ad98bd" data-color="2"/>
        <path d="M129.7 146.5c-.6 0-1.1-.5-1.1-1.1v-16.6c0-.6.5-1.1 1.1-1.1s1.1.5 1.1 1.1v16.6c0 .6-.5 1.1-1.1 1.1z" fill="#ad98bd" data-color="2"/>
        <path d="M142.8 159.6c-.6 0-1.1-.5-1.1-1.1v-16.6c0-.6.5-1.1 1.1-1.1.6 0 1.1.5 1.1 1.1v16.6c0 .6-.5 1.1-1.1 1.1z" fill="#ad98bd" data-color="2"/>
        <path d="M156 172.8c-.6 0-1.1-.5-1.1-1.1v-16.6c0-.6.5-1.1 1.1-1.1s1.1.5 1.1 1.1v16.6c0 .6-.5 1.1-1.1 1.1z" fill="#ad98bd" data-color="2"/>
        <path d="M142.8 159.6h-16.6c-.6 0-1.1-.5-1.1-1.1s.5-1.1 1.1-1.1h16.6c.6 0 1.1.5 1.1 1.1s-.5 1.1-1.1 1.1z" fill="#ad98bd" data-color="2"/>
        <path d="M156 172.8h-16.6c-.6 0-1.1-.5-1.1-1.1s.5-1.1 1.1-1.1H156c.6 0 1.1.5 1.1 1.1s-.5 1.1-1.1 1.1z" fill="#ad98bd" data-color="2"/>
        <path d="M178.1 193.8h37.7c41.3 0 74.8-33.5 74.8-74.8V81.3h-38.8c-40.7 0-73.7 33-73.7 73.7v38.8z" fill="#d7c9e3" data-color="1"/>
        <path d="M178.1 194.9c-.3 0-.6-.1-.8-.3-.4-.4-.4-1.1 0-1.6l65.1-65.1c.4-.4 1.1-.4 1.6 0 .4.4.4 1.1 0 1.6l-65.1 65.1c-.2.2-.5.3-.8.3z" fill="#ad98bd" data-color="2"/>
        <path d="M243.2 146.5h-16.6c-.6 0-1.1-.5-1.1-1.1s.5-1.1 1.1-1.1h16.6c.6 0 1.1.5 1.1 1.1s-.5 1.1-1.1 1.1z" fill="#ad98bd" data-color="2"/>
        <path d="M226.6 146.5c-.6 0-1.1-.5-1.1-1.1v-16.6c0-.6.5-1.1 1.1-1.1s1.1.5 1.1 1.1v16.6c0 .6-.5 1.1-1.1 1.1z" fill="#ad98bd" data-color="2"/>
        <path d="M213.5 159.6c-.6 0-1.1-.5-1.1-1.1v-16.6c0-.6.5-1.1 1.1-1.1s1.1.5 1.1 1.1v16.6c0 .6-.5 1.1-1.1 1.1z" fill="#ad98bd" data-color="2"/>
        <path d="M200.3 172.8c-.6 0-1.1-.5-1.1-1.1v-16.6c0-.6.5-1.1 1.1-1.1s1.1.5 1.1 1.1v16.6c0 .6-.5 1.1-1.1 1.1z" fill="#ad98bd" data-color="2"/>
        <path d="M230.1 159.6h-16.6c-.6 0-1.1-.5-1.1-1.1s.5-1.1 1.1-1.1h16.6c.6 0 1.1.5 1.1 1.1s-.5 1.1-1.1 1.1z" fill="#ad98bd" data-color="2"/>
        <path d="M216.9 172.8h-16.6c-.6 0-1.1-.5-1.1-1.1s.5-1.1 1.1-1.1h16.6c.6 0 1.1.5 1.1 1.1s-.5 1.1-1.1 1.1z" fill="#ad98bd" data-color="2"/>
        <path d="M178.1 193.8h18.7c41.3 0 74.8 33.5 74.8 74.8v18.7h-19.8c-40.7 0-73.7-33-73.7-73.7v-19.8z" fill="#b5e0df" data-color="3"/>
        <path d="M232.2 249c-.3 0-.6-.1-.8-.3l-54.1-54.1c-.4-.4-.4-1.1 0-1.6.4-.4 1.1-.4 1.6 0l54.1 54.1c.4.4.4 1.1 0 1.6-.2.2-.5.3-.8.3z" fill="#8db4b5" data-color="4"/>
        <path d="M232.2 235.1h-13.8c-.6 0-1.1-.5-1.1-1.1s.5-1.1 1.1-1.1h13.8c.6 0 1.1.5 1.1 1.1s-.5 1.1-1.1 1.1z" fill="#8db4b5" data-color="4"/>
        <path d="M218.4 248.9c-.6 0-1.1-.5-1.1-1.1V234c0-.6.5-1.1 1.1-1.1s1.1.5 1.1 1.1v13.8c0 .6-.5 1.1-1.1 1.1z" fill="#8db4b5" data-color="4"/>
        <path d="M207.5 238c-.6 0-1.1-.5-1.1-1.1v-13.8c0-.6.5-1.1 1.1-1.1s1.1.5 1.1 1.1v13.8c0 .6-.5 1.1-1.1 1.1z" fill="#8db4b5" data-color="4"/>
        <path d="M196.5 227c-.6 0-1.1-.5-1.1-1.1v-13.8c0-.6.5-1.1 1.1-1.1s1.1.5 1.1 1.1v13.8c0 .6-.5 1.1-1.1 1.1z" fill="#8db4b5" data-color="4"/>
        <path d="M221.3 224.2h-13.8c-.6 0-1.1-.5-1.1-1.1s.5-1.1 1.1-1.1h13.8c.6 0 1.1.5 1.1 1.1s-.5 1.1-1.1 1.1z" fill="#8db4b5" data-color="4"/>
        <path d="M210.3 213.2h-13.8c-.6 0-1.1-.5-1.1-1.1s.5-1.1 1.1-1.1h13.8c.6 0 1.1.5 1.1 1.1s-.5 1.1-1.1 1.1z" fill="#8db4b5" data-color="4"/>
        <path d="M178.1 193.8h-18.7c-41.3 0-74.8 33.5-74.8 74.8v18.7h19.8c40.7 0 73.7-33 73.7-73.7v-19.8z" fill="#b5e0df" data-color="3"/>
        <path d="M124 249c-.3 0-.6-.1-.8-.3-.4-.4-.4-1.1 0-1.6l54.1-54.1c.4-.4 1.1-.4 1.6 0 .4.4.4 1.1 0 1.6l-54.1 54.1c-.2.2-.5.3-.8.3z" fill="#8db4b5" data-color="4"/>
        <path d="M137.8 235.1H124c-.6 0-1.1-.5-1.1-1.1s.5-1.1 1.1-1.1h13.8c.6 0 1.1.5 1.1 1.1s-.4 1.1-1.1 1.1z" fill="#8db4b5" data-color="4"/>
        <path d="M137.8 248.9c-.6 0-1.1-.5-1.1-1.1V234c0-.6.5-1.1 1.1-1.1.6 0 1.1.5 1.1 1.1v13.8c.1.6-.4 1.1-1.1 1.1z" fill="#8db4b5" data-color="4"/>
        <path d="M148.8 238c-.6 0-1.1-.5-1.1-1.1v-13.8c0-.6.5-1.1 1.1-1.1s1.1.5 1.1 1.1v13.8c0 .6-.5 1.1-1.1 1.1z" fill="#8db4b5" data-color="4"/>
        <path d="M159.7 227c-.6 0-1.1-.5-1.1-1.1v-13.8c0-.6.5-1.1 1.1-1.1s1.1.5 1.1 1.1v13.8c.1.6-.4 1.1-1.1 1.1z" fill="#8db4b5" data-color="4"/>
        <path d="M148.8 224.2H135c-.6 0-1.1-.5-1.1-1.1s.5-1.1 1.1-1.1h13.8c.6 0 1.1.5 1.1 1.1s-.5 1.1-1.1 1.1z" fill="#8db4b5" data-color="4"/>
        <path d="M159.7 213.2h-13.8c-.6 0-1.1-.5-1.1-1.1s.5-1.1 1.1-1.1h13.8c.6 0 1.1.5 1.1 1.1s-.4 1.1-1.1 1.1z" fill="#8db4b5" data-color="4"/>
        <path d="M180.4 196h-57.6c-42.5 0-77-34.6-77-77V61.4h58.7c41.9 0 76 34.1 76 76V196zM50.2 65.8V119c0 40 32.6 72.6 72.6 72.6h53.1v-54.2c0-39.4-32.1-71.5-71.5-71.5H50.2z" fill="#0d7874" data-color="5"/>
        <path d="M233.5 196h-57.6v-58.7c0-41.9 34.1-76 76-76h58.7V119c-.1 42.4-34.6 77-77.1 77zm-53.1-4.5h53.1c40 0 72.6-32.6 72.6-72.6V65.8h-54.2c-39.4 0-71.5 32.1-71.5 71.5v54.2z" fill="#0d7874" data-color="5"/>
        <path d="M290.6 306.2h-38.7c-41.9 0-76-34.1-76-76v-38.7h37.7c42.5 0 77 34.6 77 77v37.7zM180.4 196v34.2c0 39.4 32.1 71.5 71.5 71.5h34.2v-33.2c0-40-32.6-72.6-72.6-72.6h-33.1z" fill="#0d7874" data-color="5"/>
        <path d="M104.4 306.2H65.7v-37.7c0-42.5 34.6-77 77-77h37.7v38.7c0 41.9-34.1 76-76 76zm-34.3-4.4h34.2c39.4 0 71.5-32.1 71.5-71.5V196h-33.2c-40 0-72.6 32.6-72.6 72.6v33.2z" fill="#0d7874" data-color="5"/>
        <path d="M288.7 197.9c-.1 0-.3 0-.4-.1l-.3-.1c-.1 0-.1-.1-.2-.1-.1-.1-.2-.1-.3-.2-.1-.1-.1-.2-.2-.3-.1-.1-.1-.2-.1-.4v-.3c0-.1 0-.2.1-.2.2-.6 3.8-10.5 13.1-14.6 6-2.6 12.9-2.2 20.5 1.2.5.2.8.8.6 1.4-.1.3-2.8 7.8-10 12.4-.3.2-.8.2-1.1 0-9.3-5.2-19.3 0-21.2 1-.1.2-.3.3-.5.3zm20-15.7c-2.6 0-5.1.5-7.4 1.5-5.8 2.5-9.2 7.7-10.8 10.8L304 189c.6-.2 1.2 0 1.5.6.1.1.1.3.1.4 0 .4-.3.9-.7 1l-2.9 1.2c2.9.1 5.9.7 8.9 2.2 4.7-3.2 7.2-7.9 8.1-9.9-3.6-1.5-7.1-2.3-10.3-2.3z" fill="#0d7874" data-color="5"/>
        <path d="M288.4 197.7c-.4 0-.9-.3-1-.7-.2-.6 0-1.2.6-1.5l16-6.5c.6-.2 1.2 0 1.5.6.2.6 0 1.2-.6 1.5l-16.1 6.6h-.4z" fill="#0d7874" data-color="5"/>
        <path d="M309 211.8c-1.7 0-3.5-.2-5.4-.6-6.5-1.6-12-6.2-16.3-13.6-.2-.4-.2-.9.1-1.3l.3-.3.4-.2c2.1-1.2 13-6.8 23.4-1 4.3 2.4 8 6.4 10.8 12.1.3.5.1 1.2-.4 1.5-.2 0-5.7 3.4-12.9 3.4zm-18.1-12.9c3.7 5.4 8.2 8.8 13.3 10.1 7 1.7 13.4-.9 15.7-2.1-2.6-4.7-5.7-8.1-9.4-10.2-7.4-4.1-15.3-1.7-19.1 0l14 4.2c.5.1.8.6.8 1.1v.3c-.2.6-.8.9-1.4.7l-13.9-4.1z" fill="#0d7874" data-color="5"/>
        <path d="M305 203.1h-.3l-16.7-5c-.6-.2-.9-.8-.7-1.4.2-.6.8-.9 1.4-.7l16.7 5c.6.2.9.8.7 1.4-.1.4-.6.7-1.1.7z" fill="#0d7874" data-color="5"/>
        <path d="M67.5 197.9c-.2 0-.4 0-.5-.1-1.9-1.1-11.9-6.2-21.2-1-.4.2-.8.2-1.1 0-7.2-4.6-9.9-12.1-10-12.4-.2-.5.1-1.2.6-1.4 7.7-3.4 14.6-3.8 20.5-1.2 9.4 4.1 12.9 14 13.1 14.6 0 .1 0 .1.1.2v.2c0 .1 0 .3-.1.4 0 .1-.1.2-.2.3-.1.1-.2.2-.3.2-.1 0-.1.1-.2.1l-.3.1c-.1-.1-.2 0-.4 0zm-15.7-9c.1 0 .3 0 .4.1l13.5 5.6c-1.6-3.1-5-8.3-10.8-10.8-5.1-2.2-11.1-2-17.7.8.9 2 3.4 6.7 8.1 9.9 3-1.5 6.1-2.1 8.9-2.2l-2.9-1.2c-.4-.2-.7-.6-.7-1 0-.1 0-.3.1-.4.3-.6.7-.8 1.1-.8z" fill="#0d7874" data-color="5"/>
        <path d="M67.9 197.7c-.1 0-.3 0-.4-.1L51.4 191c-.6-.2-.8-.9-.6-1.5.2-.6.9-.8 1.5-.6l16.1 6.6c.6.2.8.9.6 1.5-.2.5-.7.7-1.1.7z" fill="#0d7874" data-color="5"/>
        <path d="M47.2 211.8c-7.2 0-12.7-3.3-13-3.5-.5-.3-.7-.9-.4-1.5 2.9-5.6 6.5-9.7 10.8-12.1 10.3-5.7 21.3-.1 23.4 1l.4.2.3.3c.3.4.3.9.1 1.3-4.3 7.4-9.8 12-16.3 13.6-1.8.5-3.6.7-5.3.7zm-10.8-4.9c2.3 1.2 8.7 3.8 15.7 2.1 5.1-1.3 9.6-4.7 13.3-10.1L51.6 203c-.6.2-1.2-.2-1.4-.7v-.3c0-.5.3-.9.8-1.1l14-4.2c-3.8-1.7-11.7-4.1-19.1 0-3.8 2-6.9 5.4-9.5 10.2zm8.9-11.2z" fill="#0d7874" data-color="5"/>
        <path d="M51.2 203.1c-.5 0-.9-.3-1.1-.8-.2-.6.2-1.2.7-1.4l16.7-5c.6-.2 1.2.2 1.4.7.2.6-.2 1.2-.7 1.4l-16.7 5c-.1 0-.2.1-.3.1z" fill="#0d7874" data-color="5"/>
        <path fill="#0d7874" d="M180.4 276.3a2.3 2.3 0 1 1-4.6 0 2.3 2.3 0 0 1 4.6 0z" data-color="5"/>
        <path fill="#0d7874" d="M180.4 284.5a2.3 2.3 0 1 1-4.6 0 2.3 2.3 0 0 1 4.6 0z" data-color="5"/>
        <path fill="#0d7874" d="M180.4 292.7a2.3 2.3 0 1 1-4.6 0 2.3 2.3 0 0 1 4.6 0z" data-color="5"/>
        <path fill="#0d7874" d="M180.4 301a2.3 2.3 0 1 1-4.6 0 2.3 2.3 0 0 1 4.6 0z" data-color="5"/>
        <path fill="#0d7874" d="M124.5 46.5a2 2 0 1 1-4 0 2 2 0 0 1 4 0z" data-color="5"/>
        <path fill="#0d7874" d="M136.4 46.5a2 2 0 1 1-4 0 2 2 0 0 1 4 0z" data-color="5"/>
        <path fill="#0d7874" d="M147.6 49.2a2 2 0 1 1-4 0 2 2 0 0 1 4 0z" data-color="5"/>
        <path fill="#0d7874" d="M235.8 46.5a2 2 0 1 1-4 0 2 2 0 0 1 4 0z" data-color="5"/>
        <path fill="#0d7874" d="M223.9 46.5a2 2 0 1 1-4 0 2 2 0 0 1 4 0z" data-color="5"/>
        <path fill="#0d7874" d="M212.6 49.2a2 2 0 1 1-4 0 2 2 0 0 1 4 0z" data-color="5"/>
        <path d="M178.1 89.7c-.5 0-.9-.3-1.1-.8-7-22.1-22.7-33-22.8-33.1-.5-.3-.6-1-.3-1.6.3-.5 1-.6 1.6-.3.7.5 16.4 11.4 23.7 34.3.2.6-.1 1.2-.7 1.4-.1.1-.3.1-.4.1z" fill="#0d7874" data-color="5"/>
        <path d="M178.1 89.7c-.1 0-.2 0-.3-.1-.6-.2-.9-.8-.7-1.4 7.3-22.8 23-33.8 23.7-34.3.5-.3 1.2-.2 1.6.3.3.5.2 1.2-.3 1.6-.2.1-15.8 11-22.8 33.1-.3.5-.7.8-1.2.8z" fill="#0d7874" data-color="5"/>
        <path d="M353.3 178.1c0 40.4-13.7 77.6-36.8 107.3-.8 1-.1 2.5 1.2 2.5.5 0 .9-.2 1.2-.6 24.2-31.1 37.3-69.1 37.3-109.1 0-19.3-3.1-38.2-9-56-.2-.6-.8-1-1.5-1-1 0-1.8 1-1.4 2 5.9 17.2 9 35.7 9 54.9z" fill="#0d7874" data-color="5"/>
        <path d="M80.9 29.7c0 1.2 1.3 1.9 2.3 1.3C110.6 13.3 143.1 3 178 3s67.5 10.3 94.8 28c1 .7 2.3-.1 2.3-1.3 0-.5-.3-1-.7-1.3C246.1 9.9 212.9 0 178.1 0s-68 9.9-96.5 28.3c-.4.3-.7.8-.7 1.4z" fill="#0d7874" data-color="5"/>
        <path d="M3 178.1c0-19.2 3.1-37.7 8.9-55 .3-1-.4-2-1.4-2-.7 0-1.2.4-1.5 1-5.9 17.8-9 36.7-9 56 0 40 13.1 78 37.3 109.1.3.4.7.6 1.2.6 1.3 0 2-1.5 1.2-2.5C16.7 255.7 3 218.5 3 178.1z" fill="#0d7874" data-color="5"/>
    </g>
</svg>